<svg width="387" height="338" viewBox="0 0 387 338" fill="none" xmlns="http://www.w3.org/2000/svg">
<path d="M291.73 19.9999C291.73 19.9999 234.1 -12.2301 168 12.2499C101.9 36.7299 59.7201 100.47 24.2201 151.25C-11.2799 202.03 -5.88992 260.71 35.7201 294.13C77.3301 327.55 115.02 295.13 179.82 304.26C244.62 313.39 260.39 325.55 320.11 298.26C379.83 270.97 404.17 186.58 372.81 115.77C341.45 44.9599 291.73 19.9999 291.73 19.9999Z" fill="#F8F3D5"/>
<path opacity="0.8" d="M291.73 19.9999C291.73 19.9999 234.1 -12.2301 168 12.2499C101.9 36.7299 59.7201 100.47 24.2201 151.25C-11.2799 202.03 -5.88992 260.71 35.7201 294.13C77.3301 327.55 115.02 295.13 179.82 304.26C244.62 313.39 260.39 325.55 320.11 298.26C379.83 270.97 404.17 186.58 372.81 115.77C341.45 44.9599 291.73 19.9999 291.73 19.9999Z" fill="white"/>
<path d="M344.17 109.71C339.24 107.02 337 109.26 335.17 107.02C333.34 104.78 340.1 98.9499 326.65 93.1199C326.65 93.1199 325.76 80.5699 307.38 80.1199C289 79.6699 294 92.6799 289 95.8099C284 98.9399 282.72 94.0199 277.79 97.1599C272.86 100.3 275.1 106.57 271.07 107.47C267.04 108.37 261.66 103.47 256.73 106.57C251.8 109.67 251.8 112.4 249.55 112.4C247.3 112.4 242.83 110.61 240.14 112.4C237.45 114.19 234.31 116.4 234.31 116.4H347.76C347.76 116.4 349.11 112.4 344.17 109.71Z" fill="#F8F3D5"/>
<path opacity="0.5" d="M344.17 109.71C339.24 107.02 337 109.26 335.17 107.02C333.34 104.78 340.1 98.9499 326.65 93.1199C326.65 93.1199 325.76 80.5699 307.38 80.1199C289 79.6699 294 92.6799 289 95.8099C284 98.9399 282.72 94.0199 277.79 97.1599C272.86 100.3 275.1 106.57 271.07 107.47C267.04 108.37 261.66 103.47 256.73 106.57C251.8 109.67 251.8 112.4 249.55 112.4C247.3 112.4 242.83 110.61 240.14 112.4C237.45 114.19 234.31 116.4 234.31 116.4H347.76C347.76 116.4 349.11 112.4 344.17 109.71Z" fill="#F8F3D5"/>
<path d="M172.47 52.3699C169.55 50.7799 168.22 52.1099 167.16 50.7799C166.1 49.4499 170.08 45.9999 162.16 42.5399C162.16 42.5399 161.63 35.0999 150.74 34.8399C139.85 34.5799 142.74 42.2799 139.85 44.1399C136.96 45.9999 136.13 43.0799 133.2 44.9299C130.27 46.7799 131.61 50.5099 129.2 51.0499C126.79 51.5899 123.62 48.6499 120.7 50.5099C117.78 52.3699 117.78 53.9699 116.45 53.9699C115.12 53.9699 112.45 52.8999 110.87 53.9699C109.29 55.0399 107.42 56.3599 107.42 56.3599H174.6C174.6 56.3599 175.4 53.9999 172.47 52.3699Z" fill="#F8F3D5"/>
<path opacity="0.5" d="M172.47 52.3699C169.55 50.7799 168.22 52.1099 167.16 50.7799C166.1 49.4499 170.08 45.9999 162.16 42.5399C162.16 42.5399 161.63 35.0999 150.74 34.8399C139.85 34.5799 142.74 42.2799 139.85 44.1399C136.96 45.9999 136.13 43.0799 133.2 44.9299C130.27 46.7799 131.61 50.5099 129.2 51.0499C126.79 51.5899 123.62 48.6499 120.7 50.5099C117.78 52.3699 117.78 53.9699 116.45 53.9699C115.12 53.9699 112.45 52.8999 110.87 53.9699C109.29 55.0399 107.42 56.3599 107.42 56.3599H174.6C174.6 56.3599 175.4 53.9999 172.47 52.3699Z" fill="#F8F3D5"/>
<path d="M213.44 273.9C205.04 269.31 201.22 273.13 198.16 269.31C195.1 265.49 206.56 255.57 183.65 245.64C183.65 245.64 182.12 224.25 150.81 223.49C119.5 222.73 127.89 244.87 119.49 250.22C111.09 255.57 108.8 247.16 100.4 252.51C92.0001 257.86 95.8101 268.51 88.9401 270.08C82.0701 271.65 72.9401 263.2 64.5001 268.55C56.0601 273.9 56.1001 278.48 52.2801 278.48C48.4601 278.48 40.8201 275.42 36.2801 278.48C31.7401 281.54 26.3501 285.35 26.3501 285.35H219.55C219.55 285.35 221.84 278.48 213.44 273.9Z" fill="#F8F3D5"/>
<path opacity="0.5" d="M213.44 273.9C205.04 269.31 201.22 273.13 198.16 269.31C195.1 265.49 206.56 255.57 183.65 245.64C183.65 245.64 182.12 224.25 150.81 223.49C119.5 222.73 127.89 244.87 119.49 250.22C111.09 255.57 108.8 247.16 100.4 252.51C92.0001 257.86 95.8101 268.51 88.9401 270.08C82.0701 271.65 72.9401 263.2 64.5001 268.55C56.0601 273.9 56.1001 278.48 52.2801 278.48C48.4601 278.48 40.8201 275.42 36.2801 278.48C31.7401 281.54 26.3501 285.35 26.3501 285.35H219.55C219.55 285.35 221.84 278.48 213.44 273.9Z" fill="#F8F3D5"/>
<g opacity="0.5">
<path d="M344.17 109.71C339.24 107.02 337 109.26 335.17 107.02C333.34 104.78 340.1 98.9499 326.65 93.1199C326.65 93.1199 325.76 80.5699 307.38 80.1199C289 79.6699 294 92.6799 289 95.8099C284 98.9399 282.72 94.0199 277.79 97.1599C272.86 100.3 275.1 106.57 271.07 107.47C267.04 108.37 261.66 103.47 256.73 106.57C251.8 109.67 251.8 112.4 249.55 112.4C247.3 112.4 242.83 110.61 240.14 112.4C237.45 114.19 234.31 116.4 234.31 116.4H347.76C347.76 116.4 349.11 112.4 344.17 109.71Z" fill="white"/>
<path opacity="0.5" d="M344.17 109.71C339.24 107.02 337 109.26 335.17 107.02C333.34 104.78 340.1 98.9499 326.65 93.1199C326.65 93.1199 325.76 80.5699 307.38 80.1199C289 79.6699 294 92.6799 289 95.8099C284 98.9399 282.72 94.0199 277.79 97.1599C272.86 100.3 275.1 106.57 271.07 107.47C267.04 108.37 261.66 103.47 256.73 106.57C251.8 109.67 251.8 112.4 249.55 112.4C247.3 112.4 242.83 110.61 240.14 112.4C237.45 114.19 234.31 116.4 234.31 116.4H347.76C347.76 116.4 349.11 112.4 344.17 109.71Z" fill="white"/>
</g>
<g opacity="0.5">
<path d="M172.47 52.3699C169.55 50.7799 168.22 52.1099 167.16 50.7799C166.1 49.4499 170.08 45.9999 162.16 42.5399C162.16 42.5399 161.63 35.0999 150.74 34.8399C139.85 34.5799 142.74 42.2799 139.85 44.1399C136.96 45.9999 136.13 43.0799 133.2 44.9299C130.27 46.7799 131.61 50.5099 129.2 51.0499C126.79 51.5899 123.62 48.6499 120.7 50.5099C117.78 52.3699 117.78 53.9699 116.45 53.9699C115.12 53.9699 112.45 52.8999 110.87 53.9699C109.29 55.0399 107.42 56.3599 107.42 56.3599H174.6C174.6 56.3599 175.4 53.9999 172.47 52.3699Z" fill="white"/>
<path opacity="0.5" d="M172.47 52.3699C169.55 50.7799 168.22 52.1099 167.16 50.7799C166.1 49.4499 170.08 45.9999 162.16 42.5399C162.16 42.5399 161.63 35.0999 150.74 34.8399C139.85 34.5799 142.74 42.2799 139.85 44.1399C136.96 45.9999 136.13 43.0799 133.2 44.9299C130.27 46.7799 131.61 50.5099 129.2 51.0499C126.79 51.5899 123.62 48.6499 120.7 50.5099C117.78 52.3699 117.78 53.9699 116.45 53.9699C115.12 53.9699 112.45 52.8999 110.87 53.9699C109.29 55.0399 107.42 56.3599 107.42 56.3599H174.6C174.6 56.3599 175.4 53.9999 172.47 52.3699Z" fill="white"/>
</g>
<g opacity="0.5">
<path d="M213.44 273.9C205.04 269.31 201.22 273.13 198.16 269.31C195.1 265.49 206.56 255.57 183.65 245.64C183.65 245.64 182.12 224.25 150.81 223.49C119.5 222.73 127.89 244.87 119.49 250.22C111.09 255.57 108.8 247.16 100.4 252.51C92.0001 257.86 95.8101 268.51 88.9401 270.08C82.0701 271.65 72.9401 263.2 64.5001 268.55C56.0601 273.9 56.1001 278.48 52.2801 278.48C48.4601 278.48 40.8201 275.42 36.2801 278.48C31.7401 281.54 26.3501 285.35 26.3501 285.35H219.55C219.55 285.35 221.84 278.48 213.44 273.9Z" fill="white"/>
<path opacity="0.5" d="M213.44 273.9C205.04 269.31 201.22 273.13 198.16 269.31C195.1 265.49 206.56 255.57 183.65 245.64C183.65 245.64 182.12 224.25 150.81 223.49C119.5 222.73 127.89 244.87 119.49 250.22C111.09 255.57 108.8 247.16 100.4 252.51C92.0001 257.86 95.8101 268.51 88.9401 270.08C82.0701 271.65 72.9401 263.2 64.5001 268.55C56.0601 273.9 56.1001 278.48 52.2801 278.48C48.4601 278.48 40.8201 275.42 36.2801 278.48C31.7401 281.54 26.3501 285.35 26.3501 285.35H219.55C219.55 285.35 221.84 278.48 213.44 273.9Z" fill="white"/>
</g>
<path d="M72.27 241.33C72.27 241.33 67.33 237 62.22 235.52C57.11 234.04 51.22 234.01 46.13 232.62C41.04 231.23 38 230.06 38 230.06L37.74 234.66L72.06 243.93L95.54 237.43L97.88 232.66C95.3215 233.851 92.6383 234.753 89.88 235.35C84.77 236.56 79.05 236.56 75.88 237.78C72.71 239 72.27 241.33 72.27 241.33Z" fill="white" stroke="#263238" stroke-linecap="round" stroke-linejoin="round"/>
<path d="M37.26 231.1C43.9687 233.152 50.8453 234.607 57.81 235.45C63.0483 236.161 68.0222 238.183 72.27 241.33C75.7253 239.121 79.703 237.866 83.8 237.69C88.7278 237.317 93.5892 236.325 98.27 234.74L96.8 237.74L71.58 242.68L36.74 233.58L37.26 231.1Z" fill="white" stroke="#263238" stroke-linecap="round" stroke-linejoin="round"/>
<path d="M36.3099 232.14C41.6403 234.183 47.2256 235.485 52.9099 236.01C62.1899 236.71 72.0099 241.33 72.0099 241.33C75.8081 239.414 79.9782 238.35 84.2299 238.21C89.0014 238.169 93.7487 237.527 98.3599 236.3C98.2162 236.779 98.1802 237.284 98.2546 237.778C98.3289 238.273 98.5117 238.745 98.7899 239.16L71.9199 244.88L36.1299 234.48L36.3099 232.14Z" fill="white" stroke="#263238" stroke-linecap="round" stroke-linejoin="round"/>
<path d="M35.8699 234.05L70.7999 242.8V244L73.7399 244.08V242.7L99.5699 238.62C99.5699 238.62 100.7 238.36 99.7399 239.62C98.7799 240.88 82.1499 255.4 82.1499 255.4L63.6899 257.3L35.6899 251.15L35.8699 234.05Z" fill="#F8F3D5"/>
<mask id="mask0_216_550" style="mask-type:luminance" maskUnits="userSpaceOnUse" x="35" y="234" width="66" height="24">
<path d="M35.8699 234.05L70.7999 242.8V244L73.7399 244.08V242.7L99.5699 238.62C99.5699 238.62 100.7 238.36 99.7399 239.62C98.7799 240.88 82.1499 255.4 82.1499 255.4L63.6899 257.3L35.6899 251.15L35.8699 234.05Z" fill="white"/>
</mask>
<g mask="url(#mask0_216_550)">
<path opacity="0.3" d="M70.8 244.02V242.8L35.87 234.05L35.7 251.21L63.69 257.36L64.19 257.31L71.58 244.04L70.8 244.02Z" fill="black"/>
</g>
<path d="M35.8699 234.05L70.7999 242.8V244L73.7399 244.08V242.7L99.5699 238.62C99.5699 238.62 100.7 238.36 99.7399 239.62C98.7799 240.88 82.1499 255.4 82.1499 255.4L63.6899 257.3L35.6899 251.15L35.8699 234.05Z" stroke="#263238" stroke-linecap="round" stroke-linejoin="round"/>
<path d="M70.7998 244.02L63.0798 257.36L64.5598 257.45L73.7398 244.1L70.7998 244.02Z" fill="#F8F3D5" stroke="#263238" stroke-linecap="round" stroke-linejoin="round"/>
<path d="M69.5599 325.35C69.5599 325.35 67.8799 328.87 65.6399 330.48C63.3999 332.09 60.5399 332.85 58.2799 334.4C57.0523 335.231 55.8768 336.136 54.7599 337.11L53.8599 334.05L68.9999 323.62L81.5499 325.14L83.4899 328.06C82.0878 327.585 80.6278 327.303 79.1499 327.22C76.4599 327.03 73.6699 327.73 71.8999 327.3C71.3899 327.168 70.9154 326.925 70.5108 326.588C70.1061 326.251 69.7813 325.828 69.5599 325.35Z" fill="white" stroke="#263238" stroke-linecap="round" stroke-linejoin="round"/>
<path d="M54.21 336.5C57.0863 334.337 60.2038 332.515 63.5 331.07C66.0484 329.815 68.16 327.822 69.56 325.35C71.4773 326.349 73.6666 326.7 75.8 326.35C78.3115 326.004 80.863 326.079 83.35 326.57L82.12 324.7L69 324.5L53.54 334.87L54.21 336.5Z" fill="white" stroke="#263238" stroke-linecap="round" stroke-linejoin="round"/>
<path d="M53.5698 335.92C55.7584 333.946 58.2811 332.378 61.0198 331.29C65.4198 329.69 69.4398 325.38 69.4398 325.38C71.5003 326.185 73.7453 326.397 75.9198 325.99C78.2811 325.437 80.7196 325.292 83.1299 325.56C82.8272 324.94 82.7325 324.238 82.8598 323.56L68.7999 323L53.0898 334.37L53.5698 335.92Z" fill="white" stroke="#263238" stroke-linecap="round" stroke-linejoin="round"/>
<path d="M53 334.69L68.56 324.53L68.35 323.72L69.78 323.3L70.01 324.23L83.29 323.83C83.29 323.83 83.88 323.83 83.2 323.11C82.52 322.39 72 314.62 72 314.62L62.67 315.62L50.05 323.17L53 334.69Z" fill="#F8F3D5"/>
<mask id="mask1_216_550" style="mask-type:luminance" maskUnits="userSpaceOnUse" x="50" y="314" width="34" height="21">
<path d="M53 334.69L68.56 324.53L68.35 323.72L69.78 323.3L70.01 324.23L83.29 323.83C83.29 323.83 83.88 323.83 83.2 323.11C82.52 322.39 72 314.62 72 314.62L62.67 315.62L50.05 323.17L53 334.69Z" fill="white"/>
</mask>
<g mask="url(#mask1_216_550)">
<path opacity="0.3" d="M68.3901 323.72L68.6001 324.53L53.0401 334.69L50.0601 323.14L62.6801 315.59L62.9301 315.56L68.7701 323.61L68.3901 323.72Z" fill="black"/>
</g>
<path d="M53 334.69L68.56 324.53L68.35 323.72L69.78 323.3L70.01 324.23L83.29 323.83C83.29 323.83 83.88 323.83 83.2 323.11C82.52 322.39 72 314.62 72 314.62L62.67 315.62L50.05 323.17L53 334.69Z" stroke="#263238" stroke-linecap="round" stroke-linejoin="round"/>
<path d="M68.3899 323.72L62.3899 315.66L63.0899 315.42L69.8199 323.3L68.3899 323.72Z" fill="#F8F3D5" stroke="#263238" stroke-linecap="round" stroke-linejoin="round"/>
<path d="M302.22 217.71L330.46 246.31L270.16 263.3L266.17 234.63L302.22 217.71Z" fill="#F8F3D5" stroke="#263238" stroke-linecap="round" stroke-linejoin="round"/>
<path d="M327.21 250.44L264.84 268.77L269.87 235.81L301.34 221.77L327.21 250.44Z" fill="white" stroke="#263238" stroke-linecap="round" stroke-linejoin="round"/>
<path d="M302.82 223.55L326.02 253.55L267.5 270.54L274.3 234.48L302.82 223.55Z" fill="white"/>
<mask id="mask2_216_550" style="mask-type:luminance" maskUnits="userSpaceOnUse" x="267" y="223" width="60" height="48">
<path d="M302.82 223.55L326.02 253.55L267.5 270.54L274.3 234.48L302.82 223.55Z" fill="white"/>
</mask>
<g mask="url(#mask2_216_550)">
<path opacity="0.17" d="M302.82 223.55L326.02 253.55L267.5 270.54L274.3 234.48L302.82 223.55Z" fill="black"/>
</g>
<path d="M302.82 223.55L326.02 253.55L267.5 270.54L274.3 234.48L302.82 223.55Z" stroke="#263238" stroke-linecap="round" stroke-linejoin="round"/>
<path d="M302.82 223.55L292.18 260.49L250.65 273.06L266.61 239.06L302.82 223.55Z" fill="white" stroke="#263238" stroke-linecap="round" stroke-linejoin="round"/>
<path d="M289.23 257.54L249.18 270.99L247.99 265.37L285.09 252.07L289.23 257.54Z" fill="white" stroke="#263238" stroke-linecap="round" stroke-linejoin="round"/>
<path d="M301.79 218.52L328.39 246.16L327.21 250.44L302.82 223.55L289.23 257.54L285.09 252.07L301.79 218.52Z" fill="white" stroke="#263238" stroke-linecap="round" stroke-linejoin="round"/>
<path d="M302.22 217.71L285.24 253.11L246.07 266.41L266.17 234.63L302.22 217.71Z" fill="#F8F3D5"/>
<mask id="mask3_216_550" style="mask-type:luminance" maskUnits="userSpaceOnUse" x="246" y="217" width="57" height="50">
<path d="M302.22 217.71L285.24 253.11L246.07 266.41L266.17 234.63L302.22 217.71Z" fill="white"/>
</mask>
<g mask="url(#mask3_216_550)">
<path opacity="0.3" d="M302.22 217.71L285.24 253.11L246.07 266.41L266.17 234.63L302.22 217.71Z" fill="black"/>
</g>
<path d="M302.22 217.71L285.24 253.11L246.07 266.41L266.17 234.63L302.22 217.71Z" stroke="#263238" stroke-linecap="round" stroke-linejoin="round"/>
<path d="M264.55 237.89L296.06 223.51" stroke="#263238" stroke-linecap="round" stroke-linejoin="round"/>
<path d="M171.02 320.48L199.94 284.9L140.28 282.1L135.53 311.99L171.02 320.48Z" fill="#F8F3D5" stroke="#263238" stroke-linecap="round" stroke-linejoin="round"/>
<path d="M196.81 281.5L135.12 277.85L139.24 309.92L170.25 316.6L196.81 281.5Z" fill="white" stroke="#263238" stroke-linecap="round" stroke-linejoin="round"/>
<path d="M171.77 314.45L195.71 278.64L137.82 275.42L143.63 310.2L171.77 314.45Z" fill="white"/>
<mask id="mask4_216_550" style="mask-type:luminance" maskUnits="userSpaceOnUse" x="137" y="275" width="59" height="40">
<path d="M171.77 314.45L195.71 278.64L137.82 275.42L143.63 310.2L171.77 314.45Z" fill="white"/>
</mask>
<g mask="url(#mask4_216_550)">
<path opacity="0.17" d="M171.77 314.45L195.71 278.64L137.82 275.42L143.63 310.2L171.77 314.45Z" fill="black"/>
</g>
<path d="M171.77 314.45L195.71 278.64L137.82 275.42L143.63 310.2L171.77 314.45Z" stroke="#263238" stroke-linecap="round" stroke-linejoin="round"/>
<path d="M171.77 314.45L162.16 279.69L121.09 276.9L136.09 307.41L171.77 314.45Z" fill="white" stroke="#263238" stroke-linecap="round" stroke-linejoin="round"/>
<path d="M159.13 283.38L119.56 279.34L118.23 285.29L154.86 289.88L159.13 283.38Z" fill="white" stroke="#263238" stroke-linecap="round" stroke-linejoin="round"/>
<path d="M170.6 319.77L197.87 285.54L196.81 281.5L171.77 314.45L159.13 283.38L154.86 289.88L170.6 319.77Z" fill="white" stroke="#263238" stroke-linecap="round" stroke-linejoin="round"/>
<path d="M171.02 320.48L155.03 288.8L116.34 284.7L135.53 311.99L171.02 320.48Z" fill="#F8F3D5"/>
<mask id="mask5_216_550" style="mask-type:luminance" maskUnits="userSpaceOnUse" x="116" y="284" width="56" height="37">
<path d="M171.02 320.48L155.03 288.8L116.34 284.7L135.53 311.99L171.02 320.48Z" fill="white"/>
</mask>
<g mask="url(#mask5_216_550)">
<path opacity="0.3" d="M171.02 320.48L155.03 288.8L116.34 284.7L135.53 311.99L171.02 320.48Z" fill="black"/>
</g>
<path d="M171.02 320.48L155.03 288.8L116.34 284.7L135.53 311.99L171.02 320.48Z" stroke="#263238" stroke-linecap="round" stroke-linejoin="round"/>
<path d="M132.58 308.05L164.09 314.68" stroke="#263238" stroke-linecap="round" stroke-linejoin="round"/>
<path d="M194.47 81.2301C194.47 81.2301 181.37 87.5601 176.13 95.2301C170.89 102.9 172.42 117.06 180.49 121.64C188.56 126.22 216.73 143.04 236.6 140.64C256.47 138.24 253.41 117.93 243.37 109.85C233.33 101.77 219.79 94.5701 219.79 94.5701C219.79 94.5701 219.14 90.2101 218.26 88.6801C217.38 87.1501 207.35 77.3001 194.47 81.2301Z" fill="#263238" stroke="#263238" stroke-linecap="round" stroke-linejoin="round"/>
<path d="M247.65 114.63C217.91 105.53 198.32 121.82 192.18 128.06C204.48 134.45 222.6 142.3 236.6 140.61C253.22 138.6 253.79 124.05 247.65 114.63Z" fill="white" stroke="#263238" stroke-linecap="round" stroke-linejoin="round"/>
<path d="M227.43 112.23C227.43 112.23 244.9 126.23 238.78 140.17" stroke="#263238" stroke-linecap="round" stroke-linejoin="round"/>
<path d="M170.09 75.1301L163.09 107.78H168.72L182.6 82.0501C182.6 82.0501 179.89 73.8001 170.09 75.1301Z" fill="white" stroke="#263238" stroke-linecap="round" stroke-linejoin="round"/>
<path d="M258.07 59.29C252.34 52.29 244.77 45.8 230.9 44.69C230.9 44.69 219.08 44.3201 203 51.1601C190.43 56.5001 177 68.1601 170.09 75.1601C176.27 76.7301 179.95 79.26 182.61 82.08C185.35 79.47 187.74 77.2001 189.5 75.7701C195.42 70.9601 204.11 66.9 204.11 66.9C204.11 66.9 194.68 79.83 192.83 83.16C190.98 86.49 192.28 91.85 202.07 93.33C211.86 94.81 214.27 92.9601 218.15 90.7401C222.03 88.5201 226.84 86.4901 228.69 86.4901C232.387 86.7521 236.056 85.6885 239.04 83.4901C243.84 80.1601 245.88 70.74 247.54 70C248.68 69.49 258.77 82.65 266.63 92.53L267.31 92.18C270.73 90.42 273.4 86.83 275.23 83.67C268.87 74.38 261.78 63.83 258.07 59.29Z" fill="#F8F3D5" stroke="#263238" stroke-linecap="round" stroke-linejoin="round"/>
<path d="M224.94 50.9C224.94 50.9 221.02 60.33 228.87 63.9" stroke="#263238" stroke-linecap="round" stroke-linejoin="round"/>
<path d="M204.11 66.8701L212.63 64.3501" stroke="#263238" stroke-linecap="round" stroke-linejoin="round"/>
<path d="M204 83.3201C204 83.3201 209.37 88.0601 221.94 82.7001" stroke="#263238" stroke-linecap="round" stroke-linejoin="round"/>
<path d="M253.05 66.41C249.95 66.82 247.54 70.01 247.54 70.01C251.117 69.248 254.755 68.8029 258.41 68.68" stroke="#263238" stroke-linecap="round" stroke-linejoin="round"/>
<path d="M204.39 67.6501C204.39 67.6501 210.16 67.6501 215.73 67.4401" stroke="#263238" stroke-linecap="round" stroke-linejoin="round"/>
<path d="M207.48 80.8401C207.48 80.8401 208.1 84.5601 216.14 84.1401" stroke="#263238" stroke-linecap="round" stroke-linejoin="round"/>
<path d="M228.87 47.83C228.87 47.83 227.58 54.48 228.5 57.99C229.42 61.5 232.75 65.57 235.16 61.32C237.57 57.07 238.85 52.32 238.85 50.05C238.85 47.78 230.53 43.58 228.87 47.83Z" fill="white" stroke="#263238" stroke-linecap="round" stroke-linejoin="round"/>
<path d="M247.54 39.5101C247.54 39.5101 252.71 38.4001 257.15 32.6701C261.59 26.9401 255.86 26.2101 254.01 20.6701C252.16 15.1301 258.67 16.9701 249.25 7.36006C239.83 -2.24994 224.48 1.08006 217.25 4.22006C210.02 7.36006 210.25 17.9001 205.06 18.6401C199.87 19.3801 197.66 14.3901 191.38 14.3901C185.1 14.3901 178.44 21.0401 181.03 26.5801C183.62 32.1201 188.61 29.7301 188.98 28.8001C189.35 27.8701 186.39 28.9901 186.2 26.2101C186.01 23.4301 192.85 24.9201 194.89 28.6201C196.54 31.6201 193.51 35.8801 193.61 39.0301C193.82 45.3501 201.56 49.3901 206.53 50.2601C213.24 51.4301 221.4 51.0201 227.48 47.6901C234.95 43.5901 231.48 35.0901 236.98 32.8701C242.48 30.6501 245.3 33.9801 245.3 33.9801L247.54 39.5101Z" fill="#263238" stroke="#263238" stroke-linecap="round" stroke-linejoin="round"/>
<path d="M191.05 17.8199C190.098 17.4062 189.05 17.2629 188.021 17.4058C186.993 17.5487 186.023 17.9722 185.22 18.6299" stroke="white" stroke-linecap="round" stroke-linejoin="round"/>
<path d="M240.37 23C240.37 23 240.37 12 232.65 9.75999C224.93 7.51999 216.11 17.48 211.65 23.76C207.19 30.04 200.65 28.54 195.84 21.92C195.388 21.2818 194.886 20.68 194.34 20.12" stroke="white" stroke-linecap="round" stroke-linejoin="round"/>
<path d="M196.62 43.6299C200.62 46.1999 203.62 46.9399 209.49 45.0999C215.36 43.2599 214.64 33.6999 219.78 28.5599C224.92 23.4199 234.12 25.2499 234.12 25.2499C234.12 25.2499 223.83 19.7299 215.74 25.6099C207.65 31.4899 208.38 41.42 201.03 43.26" stroke="white" stroke-linecap="round" stroke-linejoin="round"/>
<path d="M245.52 24.14C245.52 24.14 252.52 22.3 252.14 16.05" stroke="white" stroke-linecap="round" stroke-linejoin="round"/>
<path d="M187.92 95C187.92 95 206.92 97.4 216.52 104" stroke="white" stroke-linecap="round" stroke-linejoin="round"/>
<path d="M241.51 26.5201C240.326 26.1807 239.07 26.1888 237.891 26.5434C236.712 26.898 235.66 27.5842 234.86 28.5201C231.72 31.8401 231.86 33.5201 229.24 35.5901C228.458 36.2732 227.474 36.6797 226.438 36.7466C225.402 36.8135 224.373 36.5371 223.51 35.9601C222.4 35.4101 221.11 35.7801 220.74 38.3601C220.37 40.9401 223.88 42.9801 224.44 42.9801C224.997 43.0103 225.551 43.0738 226.1 43.1701C226.1 43.1701 226.1 47.7901 229.24 50.5601C232.38 53.3301 238.67 57.7701 242.92 56.8501C247.17 55.9301 248.83 46.1301 248.83 41.1401C248.674 36.0805 247.678 31.0821 245.88 26.3501C244.58 23.4301 241.51 26.5201 241.51 26.5201Z" fill="white" stroke="#263238" stroke-linecap="round" stroke-linejoin="round"/>
<path d="M238 37.7501C238 38.7501 237.64 39.6101 237.18 39.6101C236.72 39.6101 236.35 38.7801 236.35 37.7501C236.35 36.7201 236.72 35.9001 237.18 35.9001C237.64 35.9001 238 36.7301 238 37.7501Z" fill="#263238"/>
<path d="M244.59 37.13C244.59 38.13 244.22 38.99 243.77 38.99C243.32 38.99 242.94 38.16 242.94 37.13C242.94 36.1 243.31 35.28 243.77 35.28C244.23 35.28 244.59 36.11 244.59 37.13Z" fill="#263238"/>
<path d="M234.08 34C234.08 34 235.31 32.15 238.41 33" stroke="#263238" stroke-linecap="round" stroke-linejoin="round"/>
<path d="M241.91 33.0001C241.91 33.0001 243.97 30.7301 245.83 33.0001" stroke="#263238" stroke-linecap="round" stroke-linejoin="round"/>
<path d="M241.71 37.1301C241.71 37.1301 241.91 41.2601 243.15 41.2601C244.39 41.2601 243.97 43.1101 242.32 43.7301" stroke="#263238" stroke-linecap="round" stroke-linejoin="round"/>
<path d="M240.67 47.86C240.67 47.86 236.96 49.51 235.52 45.79" stroke="#263238" stroke-linecap="round" stroke-linejoin="round"/>
<path d="M241.54 139.14C241.54 139.14 220.54 120.72 198.78 114.45C177.02 108.18 151.98 111.13 130.23 105.24C108.48 99.3501 95.9601 91.2401 95.9601 91.2401L94.8501 110.77L240.85 150.21L340.73 122.57L350.68 102.3C350.68 102.3 338.52 108.56 316.77 113.72C295.02 118.88 270.65 118.87 257 124C243.35 129.13 241.54 139.14 241.54 139.14Z" fill="white" stroke="#263238" stroke-linecap="round" stroke-linejoin="round"/>
<path d="M92.6399 95.65C92.6399 95.65 117 110.4 171.88 115.56C208.03 118.95 241.54 139.14 241.54 139.14C256.224 129.752 273.128 124.412 290.54 123.66C319.29 122.56 352.09 111.13 352.09 111.13L345.84 124L238.59 145L90.4299 106.3L92.6399 95.65Z" fill="white" stroke="#263238" stroke-linecap="round" stroke-linejoin="round"/>
<path d="M88.5901 100.08C109.323 109.444 131.514 115.168 154.19 117C193.62 119.95 240.43 139.11 240.43 139.11C240.43 139.11 265.12 125.85 292.43 125.85C312.714 125.677 332.896 122.952 352.5 117.74C351.891 119.777 351.74 121.924 352.058 124.026C352.376 126.129 353.155 128.134 354.34 129.9L240.06 154.25L87.8501 110L88.5901 100.08Z" fill="white" stroke="#263238" stroke-linecap="round" stroke-linejoin="round"/>
<path d="M89.33 108.83L235.27 145.41V150.57L247.8 150.94V145L357.63 127.68C357.63 127.68 362.42 126.57 358.37 132.1C354.32 137.63 283.55 199.18 283.55 199.18L205.05 207.29L86 181.16L86.71 110.85C86.7122 110.531 86.787 110.217 86.9287 109.931C87.0704 109.646 87.2752 109.396 87.5277 109.202C87.7802 109.007 88.0737 108.872 88.386 108.808C88.6983 108.744 89.0211 108.751 89.33 108.83Z" fill="#F8F3D5"/>
<mask id="mask6_216_550" style="mask-type:luminance" maskUnits="userSpaceOnUse" x="86" y="108" width="274" height="100">
<path d="M89.33 108.83L235.27 145.41V150.57L247.8 150.94V145L357.63 127.68C357.63 127.68 362.42 126.57 358.37 132.1C354.32 137.63 283.55 199.18 283.55 199.18L205.05 207.29L86 181.16L86.71 110.85C86.7122 110.531 86.787 110.217 86.9287 109.931C87.0704 109.646 87.2752 109.396 87.5277 109.202C87.7802 109.007 88.0737 108.872 88.386 108.808C88.6983 108.744 89.0211 108.751 89.33 108.83Z" fill="white"/>
</mask>
<g mask="url(#mask6_216_550)">
<path opacity="0.3" d="M235.27 150.57V145.41L86.74 108.19L86.01 181.16L205.05 207.33L207.18 207.11L238.6 150.67L235.27 150.57Z" fill="black"/>
</g>
<path d="M89.33 108.83L235.27 145.41V150.57L247.8 150.94V145L357.63 127.68C357.63 127.68 362.42 126.57 358.37 132.1C354.32 137.63 283.55 199.18 283.55 199.18L205.05 207.29L86 181.16L86.71 110.85C86.7122 110.531 86.787 110.217 86.9287 109.931C87.0704 109.646 87.2752 109.396 87.5277 109.202C87.7802 109.007 88.0737 108.872 88.386 108.808C88.6983 108.744 89.0211 108.751 89.33 108.83Z" stroke="#263238" stroke-linecap="round" stroke-linejoin="round"/>
<path d="M235.27 150.57L202.47 207.33L208.74 207.69L247.8 150.94L235.27 150.57Z" fill="#F8F3D5" stroke="#263238" stroke-linecap="round" stroke-linejoin="round"/>
<path d="M344.74 130C344.74 130 354.53 131.83 352.49 138.36L358.37 132.12C358.37 132.12 361.06 128.77 359.83 128.12C358.6 127.47 344.74 130 344.74 130Z" fill="#263238"/>
<path d="M102.86 112.54C102.86 112.54 89.01 116.37 86.86 126.72L86.74 110.85C86.74 110.85 87.16 108.46 89.35 108.85C91.54 109.24 102.86 112.54 102.86 112.54Z" fill="#263238"/>
<path d="M86.14 176.3L93.1 182.93L86.01 181.16L86.14 176.3Z" fill="#263238"/>
<path d="M278.54 199.65L287.98 195.01L283.01 199.32L278.54 199.65Z" fill="#263238"/>
<path d="M275.23 83.6801L301.79 115.52L295.1 116.58L266.63 92.5801C266.63 92.5801 274 87.7501 275.23 83.6801Z" fill="white" stroke="#263238" stroke-linecap="round" stroke-linejoin="round"/>
<path d="M157.45 104.86C157.45 104.86 156.12 103.25 155.78 104.69C155.44 106.13 152.43 111.13 154.78 111.48C157.13 111.83 158.46 106.12 158.46 106.12L157.45 104.86Z" fill="white" stroke="#263238" stroke-linecap="round" stroke-linejoin="round"/>
<path d="M160.63 104.67C160.63 104.67 159.29 103.06 158.96 104.49C158.63 105.92 155.61 110.93 157.96 111.29C160.31 111.65 161.65 105.92 161.65 105.92L160.63 104.67Z" fill="white" stroke="#263238" stroke-linecap="round" stroke-linejoin="round"/>
<path d="M163.82 104.55C163.82 104.55 162.23 102.76 161.82 104.35C161.41 105.94 157.82 111.5 160.63 111.9C163.44 112.3 165 105.9 165 105.9L163.82 104.55Z" fill="white" stroke="#263238" stroke-linecap="round" stroke-linejoin="round"/>
<path d="M166.6 105.15L171.96 110.31H165.61L166.6 105.15Z" fill="white" stroke="#263238" stroke-linecap="round" stroke-linejoin="round"/>
<path d="M166.6 105.15C166.6 105.15 165.01 103.36 164.6 104.95C164.19 106.54 160.6 112.1 163.41 112.49C166.22 112.88 167.78 106.49 167.78 106.49L166.6 105.15Z" fill="white" stroke="#263238" stroke-linecap="round" stroke-linejoin="round"/>
<path d="M309 109.78C309 109.78 310.07 107.98 310.63 109.34C311.19 110.7 314.94 115.18 312.69 115.9C310.44 116.62 308.21 111.18 308.21 111.18L309 109.78Z" fill="white" stroke="#263238" stroke-linecap="round" stroke-linejoin="round"/>
<path d="M305.86 110.08C305.86 110.08 306.93 108.28 307.49 109.64C308.05 111 311.81 115.48 309.55 116.2C307.29 116.92 305.07 111.48 305.07 111.48L305.86 110.08Z" fill="white" stroke="#263238" stroke-linecap="round" stroke-linejoin="round"/>
<path d="M302.7 110.47C302.7 110.47 303.99 108.47 304.63 109.96C305.27 111.45 309.63 116.4 306.99 117.23C304.35 118.06 301.74 112.03 301.74 112.03L302.7 110.47Z" fill="white" stroke="#263238" stroke-linecap="round" stroke-linejoin="round"/>
<path d="M300.05 111.5L295.56 117.44L301.84 116.44L300.05 111.5Z" fill="white" stroke="#263238" stroke-linecap="round" stroke-linejoin="round"/>
<path d="M300.05 111.5C300.05 111.5 301.33 109.5 301.98 110.99C302.63 112.48 306.98 117.42 304.34 118.25C301.7 119.08 299.09 113.06 299.09 113.06L300.05 111.5Z" fill="white" stroke="#263238" stroke-linecap="round" stroke-linejoin="round"/>
<path d="M117.87 164.91L124.27 163.91L117.87 162.91C117.306 162.825 116.785 162.561 116.382 162.158C115.979 161.755 115.715 161.233 115.63 160.67L114.63 154.26L113.63 160.67C113.545 161.232 113.283 161.752 112.882 162.155C112.481 162.558 111.962 162.823 111.4 162.91L104.99 163.91L111.4 164.91C111.96 165.002 112.477 165.267 112.877 165.669C113.277 166.072 113.541 166.59 113.63 167.15L114.63 173.56L115.63 167.15C115.72 166.588 115.985 166.069 116.387 165.667C116.789 165.265 117.308 165 117.87 164.91Z" fill="white"/>
<path d="M70.0602 208.33L76.4702 207.33L70.0602 206.33C69.499 206.239 68.9808 205.973 68.5788 205.571C68.1768 205.169 67.9114 204.651 67.8202 204.09L66.8202 197.68L65.8202 204.09C65.7333 204.653 65.4693 205.174 65.0666 205.576C64.6638 205.979 64.1431 206.243 63.5802 206.33L57.1702 207.33L63.5802 208.33C64.1431 208.417 64.6638 208.681 65.0666 209.084C65.4693 209.486 65.7333 210.007 65.8202 210.57L66.8202 216.98L67.8202 210.57C67.9114 210.009 68.1768 209.491 68.5788 209.089C68.9808 208.687 69.499 208.421 70.0602 208.33Z" fill="#F8F3D5"/>
<path opacity="0.5" d="M70.0602 208.33L76.4702 207.33L70.0602 206.33C69.499 206.239 68.9808 205.973 68.5788 205.571C68.1768 205.169 67.9114 204.651 67.8202 204.09L66.8202 197.68L65.8202 204.09C65.7333 204.653 65.4693 205.174 65.0666 205.576C64.6638 205.979 64.1431 206.243 63.5802 206.33L57.1702 207.33L63.5802 208.33C64.1431 208.417 64.6638 208.681 65.0666 209.084C65.4693 209.486 65.7333 210.007 65.8202 210.57L66.8202 216.98L67.8202 210.57C67.9114 210.009 68.1768 209.491 68.5788 209.089C68.9808 208.687 69.499 208.421 70.0602 208.33Z" fill="white"/>
<path d="M229.66 235.06L236.07 234.06L229.66 233.06C229.098 232.974 228.579 232.711 228.176 232.31C227.774 231.909 227.509 231.391 227.42 230.83L226.42 224.42L225.42 230.83C225.331 231.391 225.066 231.909 224.664 232.31C224.261 232.711 223.742 232.974 223.18 233.06L216.77 234.06L223.18 235.06C223.742 235.146 224.261 235.409 224.664 235.81C225.066 236.21 225.331 236.729 225.42 237.29L226.42 243.7L227.42 237.29C227.509 236.729 227.774 236.21 228.176 235.81C228.579 235.409 229.098 235.146 229.66 235.06Z" fill="#F8F3D5"/>
<path opacity="0.5" d="M229.66 235.06L236.07 234.06L229.66 233.06C229.098 232.974 228.579 232.711 228.176 232.31C227.774 231.909 227.509 231.391 227.42 230.83L226.42 224.42L225.42 230.83C225.331 231.391 225.066 231.909 224.664 232.31C224.261 232.711 223.742 232.974 223.18 233.06L216.77 234.06L223.18 235.06C223.742 235.146 224.261 235.409 224.664 235.81C225.066 236.21 225.331 236.729 225.42 237.29L226.42 243.7L227.42 237.29C227.509 236.729 227.774 236.21 228.176 235.81C228.579 235.409 229.098 235.146 229.66 235.06Z" fill="white"/>
<path d="M61.8601 174.23L66.1001 173.56L61.8601 172.89C61.4881 172.833 61.144 172.658 60.8779 172.392C60.6117 172.126 60.4374 171.782 60.3801 171.41L59.7201 167.18L59.0501 171.41C58.9928 171.782 58.8184 172.126 58.5523 172.392C58.2861 172.658 57.9421 172.833 57.5701 172.89L53.3301 173.56L57.5701 174.23C57.9421 174.287 58.2861 174.462 58.5523 174.728C58.8184 174.994 58.9928 175.338 59.0501 175.71L59.7201 179.94L60.3801 175.71C60.4374 175.338 60.6117 174.994 60.8779 174.728C61.144 174.462 61.4881 174.287 61.8601 174.23Z" fill="#F8F3D5"/>
<path opacity="0.5" d="M61.8601 174.23L66.1001 173.56L61.8601 172.89C61.4881 172.833 61.144 172.658 60.8779 172.392C60.6117 172.126 60.4374 171.782 60.3801 171.41L59.7201 167.18L59.0501 171.41C58.9928 171.782 58.8184 172.126 58.5523 172.392C58.2861 172.658 57.9421 172.833 57.5701 172.89L53.3301 173.56L57.5701 174.23C57.9421 174.287 58.2861 174.462 58.5523 174.728C58.8184 174.994 58.9928 175.338 59.0501 175.71L59.7201 179.94L60.3801 175.71C60.4374 175.338 60.6117 174.994 60.8779 174.728C61.144 174.462 61.4881 174.287 61.8601 174.23Z" fill="white"/>
<path d="M336.92 183.59L341.16 182.93L336.92 182.26C336.549 182.201 336.205 182.026 335.94 181.76C335.674 181.495 335.499 181.151 335.44 180.78L334.77 176.54L334.11 180.78C334.051 181.151 333.877 181.495 333.611 181.76C333.345 182.026 333.002 182.201 332.63 182.26L328.39 182.93L332.63 183.59C333.002 183.649 333.345 183.824 333.611 184.089C333.877 184.355 334.051 184.699 334.11 185.07L334.77 189.31L335.44 185.07C335.499 184.699 335.674 184.355 335.94 184.089C336.205 183.824 336.549 183.649 336.92 183.59Z" fill="#F8F3D5"/>
<path opacity="0.5" d="M336.92 183.59L341.16 182.93L336.92 182.26C336.549 182.201 336.205 182.026 335.94 181.76C335.674 181.495 335.499 181.151 335.44 180.78L334.77 176.54L334.11 180.78C334.051 181.151 333.877 181.495 333.611 181.76C333.345 182.026 333.002 182.201 332.63 182.26L328.39 182.93L332.63 183.59C333.002 183.649 333.345 183.824 333.611 184.089C333.877 184.355 334.051 184.699 334.11 185.07L334.77 189.31L335.44 185.07C335.499 184.699 335.674 184.355 335.94 184.089C336.205 183.824 336.549 183.649 336.92 183.59Z" fill="white"/>
<path d="M143.15 148.35L147.3 147.7L143.15 147.05C142.786 146.993 142.449 146.822 142.189 146.561C141.928 146.301 141.757 145.964 141.7 145.6L141.04 141.44L140.39 145.6C140.332 145.963 140.16 146.299 139.9 146.56C139.639 146.82 139.304 146.991 138.94 147.05L134.78 147.7L138.94 148.35C139.304 148.408 139.639 148.58 139.9 148.84C140.16 149.101 140.332 149.436 140.39 149.8L141 154L141.66 149.84C141.711 149.463 141.885 149.113 142.154 148.844C142.423 148.575 142.773 148.401 143.15 148.35Z" fill="white"/>
<path d="M280.64 189.41L284.8 188.75L280.64 188.1C280.277 188.042 279.941 187.87 279.68 187.61C279.42 187.349 279.248 187.013 279.19 186.65L278.54 182.49L277.89 186.65C277.832 187.013 277.66 187.349 277.4 187.61C277.139 187.87 276.804 188.042 276.44 188.1L272.28 188.75L276.44 189.41C276.804 189.467 277.141 189.638 277.401 189.899C277.662 190.159 277.833 190.496 277.89 190.86L278.54 195.01L279.19 190.86C279.247 190.496 279.418 190.159 279.679 189.899C279.939 189.638 280.276 189.467 280.64 189.41Z" fill="white"/>
</svg>
