<?xml version="1.0" encoding="utf-8"?>
<!-- Svg Vector Icons : http://www.onlinewebfonts.com/icon -->
<!DOCTYPE svg PUBLIC "-//W3C//DTD SVG 1.1//EN" "http://www.w3.org/Graphics/SVG/1.1/DTD/svg11.dtd">
<svg version="1.1" xmlns="http://www.w3.org/2000/svg" xmlns:xlink="http://www.w3.org/1999/xlink" x="0px" y="0px" viewBox="0 0 1000 1000" enable-background="new 0 0 1000 1000" xml:space="preserve">
<metadata> Svg Vector Icons : http://www.onlinewebfonts.com/icon </metadata>
<g><path d="M500,991.7c-270.3,0-490-219.6-490-490C6.7,228,226.3,8.3,500,8.3c270.3,0,490,219.6,490,490C990,772,770.4,991.7,500,991.7L500,991.7z M547.3,616.6l-23.7,23.7v23.7c0,3.4,0-3.4,0,0v20.3c0,40.5,30.4,71,71,71c114.9,6.8,148.7,47.3,148.7,47.3c6.8,10.1,13.5,16.9,20.3,27c3.4,6.8,6.8,13.5,13.5,16.9c-74.3,57.4-169,94.6-273.7,94.6c-104.8,0-196-33.8-273.7-94.6c3.4-6.8,6.8-13.5,13.5-16.9c6.8-10.1,13.5-16.9,20.3-27c0,0,33.8-43.9,148.7-47.3l0,0c37.2,0,67.6-30.4,67.6-71v-20.3c0-3.4,0,3.4,0,0v-23.7l-23.7-23.7c-16.9-6.8-40.6-23.7-57.4-33.8h-3.4c-16.9-10.1-33.8-27-33.8-33.8v-6.8c-10.1-43.9-23.7-125-23.7-155.4c0-111.5,50.7-162.2,162.2-162.2c111.5,0,162.2,54.1,162.2,162.2c0,13.5,3.4,81.1-27,135.2C611.5,569.3,554.1,613.2,547.3,616.6L547.3,616.6z M500,55.6C253.3,55.6,54,255,54,498.3c0,125,54.1,239.9,138.5,321c10.1-13.5,16.9-27,27-40.5c0,0,40.6-64.2,185.9-71c13.5,0,23.7-10.1,23.7-23.7l0,0c0-13.5,0-20.3,0-20.3c0-3.4,0-6.8,0-10.1c-16.9-6.8-37.2-20.3-60.8-33.8c0,0-57.4-33.8-57.4-74.3c0,0-23.7-118.3-23.7-162.2c0-108.1,47.3-209.5,209.5-209.5c162.2,0,209.5,101.4,209.5,209.5c0,43.9-23.7,162.2-23.7,162.2c0,37.2-57.4,74.3-57.4,74.3c-23.7,16.9-40.6,27-60.8,37.2c0,3.4,0,3.4,0,6.8c0,0,0,10.1,0,20.3l0,0c0,13.5,6.8,23.7,23.7,23.7c148.7,6.8,185.9,71,185.9,71c6.8,13.5,16.9,27,27,40.5c84.5-81.1,138.5-196,138.5-321C942.7,255,743.3,55.6,500,55.6L500,55.6z"/></g>
</svg>