<svg width="207" height="37" viewBox="0 0 207 37" fill="none" xmlns="http://www.w3.org/2000/svg">
<path d="M53.7709 8.992C52.9815 8.58667 52.1175 8.23467 51.1789 7.936C50.2402 7.63733 49.3229 7.488 48.4269 7.488C47.1895 7.488 46.1975 7.776 45.4509 8.352C44.7255 8.928 44.3629 9.696 44.3629 10.656C44.3629 11.3813 44.5975 12 45.0669 12.512C45.5362 13.0027 46.1549 13.4293 46.9229 13.792C47.6909 14.1547 48.4909 14.496 49.3229 14.816C50.0482 15.0933 50.7629 15.4027 51.4669 15.744C52.1709 16.0853 52.8002 16.512 53.3549 17.024C53.9309 17.536 54.3789 18.1653 54.6989 18.912C55.0402 19.6587 55.2109 20.5867 55.2109 21.696C55.2109 22.912 54.9015 24.0213 54.2829 25.024C53.6855 26.0267 52.8215 26.816 51.6909 27.392C50.5602 27.968 49.2162 28.256 47.6589 28.256C46.6349 28.256 45.6535 28.1387 44.7149 27.904C43.7975 27.6693 42.9442 27.3707 42.1549 27.008C41.3655 26.624 40.6615 26.2293 40.0429 25.824L41.4189 23.392C41.9309 23.7547 42.5175 24.1067 43.1789 24.448C43.8402 24.768 44.5335 25.0347 45.2589 25.248C45.9842 25.44 46.6882 25.536 47.3709 25.536C48.0962 25.536 48.8109 25.408 49.5149 25.152C50.2402 24.8747 50.8375 24.4587 51.3069 23.904C51.7762 23.3493 52.0109 22.6133 52.0109 21.696C52.0109 20.9067 51.7975 20.256 51.3709 19.744C50.9655 19.2107 50.4215 18.7627 49.7389 18.4C49.0562 18.016 48.3309 17.6747 47.5629 17.376C46.8375 17.0987 46.1015 16.8 45.3549 16.48C44.6082 16.1387 43.9149 15.7333 43.2749 15.264C42.6349 14.7733 42.1229 14.176 41.7389 13.472C41.3549 12.768 41.1629 11.9147 41.1629 10.912C41.1629 9.696 41.4509 8.64 42.0269 7.744C42.6242 6.82667 43.4349 6.112 44.4589 5.6C45.4829 5.06667 46.6562 4.77867 47.9789 4.736C49.4722 4.736 50.7842 4.91733 51.9149 5.28C53.0669 5.64267 54.0802 6.09067 54.9549 6.624L53.7709 8.992ZM59.6919 28V3.232H62.6039V17.824L62.5399 17.28C62.9879 16.4053 63.6705 15.68 64.5879 15.104C65.5265 14.528 66.6252 14.24 67.8839 14.24C69.1425 14.24 70.1665 14.6133 70.9559 15.36C71.7665 16.0853 72.1825 17.0347 72.2039 18.208V28H69.1959V19.264C69.1745 18.5387 68.9612 17.952 68.5559 17.504C68.1719 17.0347 67.5639 16.8 66.7319 16.8C65.9639 16.8 65.2705 17.024 64.6519 17.472C64.0332 17.8987 63.5425 18.4853 63.1799 19.232C62.8385 19.9787 62.6679 20.832 62.6679 21.792V28H59.6919ZM83.5234 28.32C82.0087 28.32 80.7074 28.0213 79.6194 27.424C78.5314 26.8053 77.6887 25.9733 77.0914 24.928C76.5154 23.8613 76.2274 22.6453 76.2274 21.28C76.2274 19.9787 76.558 18.7947 77.2194 17.728C77.8807 16.6613 78.766 15.808 79.8754 15.168C80.9847 14.528 82.222 14.208 83.5874 14.208C85.3367 14.208 86.7874 14.72 87.9394 15.744C89.0914 16.768 89.87 18.176 90.2754 19.968L79.3634 23.808L78.6594 22.048L87.6194 18.784L86.9794 19.2C86.7234 18.496 86.2967 17.888 85.6994 17.376C85.102 16.8427 84.3234 16.576 83.3634 16.576C82.5527 16.576 81.8274 16.7787 81.1874 17.184C80.5474 17.568 80.046 18.1013 79.6834 18.784C79.3207 19.4667 79.1394 20.2453 79.1394 21.12C79.1394 22.0373 79.3314 22.848 79.7154 23.552C80.0994 24.2347 80.622 24.7787 81.2834 25.184C81.966 25.568 82.734 25.76 83.5874 25.76C84.1634 25.76 84.718 25.6533 85.2514 25.44C85.806 25.2267 86.318 24.9493 86.7874 24.608L88.1634 26.816C87.502 27.264 86.7554 27.6267 85.9234 27.904C85.1127 28.1813 84.3127 28.32 83.5234 28.32ZM94.0044 3.232H96.9804V28H94.0044V3.232ZM103.217 28V17.408H100.945V14.752H103.217V9.152C103.217 7.232 103.644 5.76 104.497 4.736C105.372 3.712 106.652 3.2 108.337 3.2C108.785 3.2 109.276 3.264 109.809 3.392C110.364 3.52 110.844 3.73333 111.249 4.032L110.001 6.176C109.809 5.984 109.596 5.856 109.361 5.792C109.127 5.70667 108.892 5.664 108.657 5.664C107.868 5.664 107.26 5.93067 106.833 6.464C106.407 6.99733 106.193 7.904 106.193 9.184V14.752H110.385V17.408H106.193V28H103.217Z" fill="#333333"/>
<path d="M127.278 10.144C126.382 9.65333 125.465 9.248 124.526 8.928C123.609 8.608 122.745 8.448 121.934 8.448C120.932 8.448 120.142 8.65067 119.566 9.056C118.99 9.46133 118.702 10.0693 118.702 10.88C118.702 11.4347 118.916 11.936 119.342 12.384C119.79 12.8107 120.356 13.1947 121.038 13.536C121.742 13.8773 122.468 14.1867 123.214 14.464C123.897 14.72 124.569 15.0293 125.23 15.392C125.913 15.7333 126.521 16.1707 127.054 16.704C127.588 17.216 128.014 17.8667 128.334 18.656C128.654 19.424 128.814 20.3733 128.814 21.504C128.814 22.6987 128.505 23.808 127.886 24.832C127.268 25.856 126.361 26.688 125.166 27.328C123.972 27.9467 122.5 28.256 120.75 28.256C119.854 28.256 118.937 28.1707 117.998 28C117.081 27.808 116.174 27.5307 115.278 27.168C114.382 26.784 113.518 26.304 112.686 25.728L114.734 22.112C115.289 22.5173 115.886 22.88 116.526 23.2C117.188 23.4987 117.849 23.7333 118.51 23.904C119.172 24.0747 119.78 24.16 120.334 24.16C120.889 24.16 121.444 24.0853 121.998 23.936C122.574 23.7653 123.044 23.488 123.406 23.104C123.79 22.72 123.982 22.1867 123.982 21.504C123.982 21.0347 123.822 20.608 123.502 20.224C123.204 19.84 122.788 19.488 122.254 19.168C121.742 18.848 121.177 18.5707 120.558 18.336C119.833 18.0587 119.086 17.7387 118.318 17.376C117.55 17.0133 116.825 16.576 116.142 16.064C115.481 15.5307 114.937 14.88 114.51 14.112C114.105 13.3227 113.902 12.3627 113.902 11.232C113.902 9.86667 114.201 8.68267 114.798 7.68C115.417 6.67733 116.281 5.888 117.39 5.312C118.5 4.71467 119.78 4.384 121.23 4.32C123.129 4.32 124.665 4.544 125.838 4.992C127.033 5.44 128.1 5.97333 129.038 6.592L127.278 10.144ZM141.391 28.384C140.559 28.384 139.737 28.2347 138.927 27.936C138.137 27.616 137.476 27.168 136.943 26.592L137.071 25.28V34.72H132.623V13.696H136.463L137.103 16.416L136.751 15.456C137.476 14.8373 138.287 14.3253 139.183 13.92C140.079 13.5147 141.113 13.312 142.287 13.312C143.588 13.312 144.751 13.6213 145.775 14.24C146.799 14.8373 147.599 15.712 148.175 16.864C148.772 17.9947 149.071 19.36 149.071 20.96C149.071 22.5387 148.74 23.8827 148.079 24.992C147.417 26.1013 146.511 26.944 145.359 27.52C144.207 28.096 142.884 28.384 141.391 28.384ZM140.495 24.864C141.22 24.864 141.881 24.704 142.479 24.384C143.097 24.064 143.588 23.616 143.951 23.04C144.335 22.4427 144.527 21.7707 144.527 21.024C144.527 20.2347 144.356 19.552 144.015 18.976C143.695 18.3787 143.247 17.92 142.671 17.6C142.116 17.2587 141.497 17.088 140.815 17.088C140.217 17.088 139.684 17.1733 139.215 17.344C138.767 17.4933 138.361 17.728 137.999 18.048C137.657 18.3467 137.359 18.7307 137.103 19.2V22.624C137.273 23.072 137.519 23.4667 137.839 23.808C138.159 24.1493 138.543 24.416 138.991 24.608C139.46 24.7787 139.961 24.864 140.495 24.864ZM158.479 28.384C157.178 28.384 155.994 28.128 154.927 27.616C153.882 27.0827 153.05 26.272 152.431 25.184C151.813 24.096 151.503 22.7093 151.503 21.024C151.503 19.4453 151.823 18.08 152.463 16.928C153.103 15.776 153.946 14.8907 154.991 14.272C156.037 13.632 157.146 13.312 158.319 13.312C159.706 13.312 160.751 13.5467 161.455 14.016C162.181 14.464 162.778 14.9653 163.247 15.52L163.055 16.064L163.471 14.016H167.631V28H163.151V24.96L163.503 25.92C163.461 25.92 163.333 26.048 163.119 26.304C162.906 26.5387 162.586 26.8267 162.159 27.168C161.754 27.488 161.242 27.7653 160.623 28C160.026 28.256 159.311 28.384 158.479 28.384ZM159.759 24.736C160.293 24.736 160.773 24.6613 161.199 24.512C161.626 24.3413 161.999 24.1067 162.319 23.808C162.639 23.488 162.917 23.0933 163.151 22.624V19.2C162.981 18.7307 162.725 18.336 162.383 18.016C162.042 17.6747 161.637 17.4187 161.167 17.248C160.698 17.056 160.175 16.96 159.599 16.96C158.959 16.96 158.362 17.1307 157.807 17.472C157.274 17.792 156.847 18.24 156.527 18.816C156.207 19.392 156.047 20.0533 156.047 20.8C156.047 21.5467 156.218 22.2187 156.559 22.816C156.901 23.4133 157.349 23.8827 157.903 24.224C158.479 24.5653 159.098 24.736 159.759 24.736ZM184.12 26.752C183.501 27.2427 182.722 27.6373 181.784 27.936C180.866 28.2347 179.96 28.384 179.064 28.384C177.464 28.384 176.066 28.096 174.872 27.52C173.698 26.9227 172.781 26.08 172.12 24.992C171.48 23.8827 171.16 22.5493 171.16 20.992C171.16 19.4347 171.512 18.112 172.216 17.024C172.92 15.9147 173.837 15.072 174.968 14.496C176.12 13.92 177.325 13.632 178.584 13.632C179.842 13.632 180.93 13.8027 181.848 14.144C182.786 14.4853 183.586 14.9333 184.248 15.488L182.072 18.368C181.773 18.1333 181.357 17.8987 180.824 17.664C180.312 17.408 179.704 17.28 179 17.28C178.381 17.28 177.816 17.44 177.304 17.76C176.792 18.08 176.386 18.5173 176.088 19.072C175.789 19.6267 175.64 20.2667 175.64 20.992C175.64 21.6747 175.8 22.304 176.12 22.88C176.44 23.456 176.877 23.9147 177.432 24.256C178.008 24.576 178.68 24.736 179.448 24.736C179.938 24.736 180.386 24.672 180.792 24.544C181.218 24.3947 181.581 24.192 181.88 23.936L184.12 26.752ZM194.44 28.384C192.733 28.384 191.283 28.064 190.088 27.424C188.915 26.784 188.019 25.8987 187.4 24.768C186.781 23.6373 186.472 22.336 186.472 20.864C186.472 19.456 186.835 18.1867 187.56 17.056C188.285 15.9253 189.256 15.0293 190.472 14.368C191.688 13.6853 193.043 13.344 194.536 13.344C196.541 13.344 198.184 13.9307 199.464 15.104C200.765 16.256 201.608 17.9307 201.992 20.128L191.112 23.584L190.12 21.152L197.992 18.496L197.064 18.912C196.893 18.3573 196.584 17.8773 196.136 17.472C195.709 17.0453 195.059 16.832 194.184 16.832C193.523 16.832 192.936 16.992 192.424 17.312C191.933 17.6107 191.549 18.048 191.272 18.624C191.016 19.1787 190.888 19.84 190.888 20.608C190.888 21.4827 191.048 22.2187 191.368 22.816C191.688 23.392 192.125 23.8293 192.68 24.128C193.235 24.4267 193.853 24.576 194.536 24.576C195.027 24.576 195.496 24.4907 195.944 24.32C196.413 24.1493 196.872 23.9253 197.32 23.648L199.304 26.976C198.557 27.4027 197.747 27.744 196.872 28C196.019 28.256 195.208 28.384 194.44 28.384Z" fill="#412918"/>
<g clip-path="url(#clip0_202_40)">
<path d="M26.25 33.2184H4.6875C3.65203 33.2184 2.8125 32.2589 2.8125 31.0753C2.8125 29.8918 3.65203 28.9322 4.6875 28.9322H26.25V33.2184Z" fill="#F9EBB2"/>
<path d="M2.8125 2.14313V28.6841C3.31031 28.1735 3.96609 27.8606 4.6875 27.8606H5.625V1.07156H3.75C3.2325 1.07156 2.8125 1.55162 2.8125 2.14313Z" fill="#573B27"/>
<path d="M26.25 1.07156H6.5625V27.8606H26.25H27.1875V26.7891V2.14313C27.1875 1.55162 26.7675 1.07156 26.25 1.07156Z" fill="#D9CD9C"/>
<path d="M28.125 27.8606V2.14313C28.125 0.958513 27.2864 0 26.25 0H3.75C2.71359 0 1.875 0.958513 1.875 2.14313V31.0753C1.875 32.8504 3.13453 34.29 4.6875 34.29H27.6562C27.9155 34.29 28.125 34.0505 28.125 33.7542C28.125 33.4579 27.9155 33.2184 27.6562 33.2184H27.1875V28.9322C27.705 28.9322 28.125 28.4521 28.125 27.8606ZM2.8125 2.14313C2.8125 1.55162 3.2325 1.07156 3.75 1.07156H5.625V27.8606H4.6875C3.96609 27.8606 3.31031 28.1735 2.8125 28.6841V2.14313ZM26.25 33.2184H4.6875C3.65203 33.2184 2.8125 32.2589 2.8125 31.0753C2.8125 29.8918 3.65203 28.9322 4.6875 28.9322H26.25V33.2184ZM26.25 27.8606H6.5625V1.07156H26.25C26.7675 1.07156 27.1875 1.55162 27.1875 2.14313V26.7891V27.8606H26.25Z" fill="#394240"/>
<path d="M20.1562 13.9303H10.7812C10.522 13.9303 10.3125 14.1698 10.3125 14.4661C10.3125 14.7624 10.522 15.0019 10.7812 15.0019H20.1562C20.4155 15.0019 20.625 14.7624 20.625 14.4661C20.625 14.1698 20.4155 13.9303 20.1562 13.9303Z" fill="#394240"/>
<path d="M22.9688 10.7156H10.7812C10.522 10.7156 10.3125 10.9551 10.3125 11.2514C10.3125 11.5477 10.522 11.7872 10.7812 11.7872H22.9688C23.228 11.7872 23.4375 11.5477 23.4375 11.2514C23.4375 10.9551 23.228 10.7156 22.9688 10.7156Z" fill="#394240"/>
<path d="M10.7812 8.57249H16.4062C16.6655 8.57249 16.875 8.333 16.875 8.03671C16.875 7.74043 16.6655 7.50093 16.4062 7.50093H10.7812C10.522 7.50093 10.3125 7.74043 10.3125 8.03671C10.3125 8.333 10.522 8.57249 10.7812 8.57249Z" fill="#394240"/>
<path opacity="0.2" d="M2.8125 2.14313V28.6841C3.31031 28.1735 3.96609 27.8606 4.6875 27.8606H5.625V1.07156H3.75C3.2325 1.07156 2.8125 1.55162 2.8125 2.14313Z" fill="#231F20"/>
</g>
<defs>
<clipPath id="clip0_202_40">
<rect width="30" height="34.29" fill="white"/>
</clipPath>
</defs>
</svg>
