<svg width="139" height="27" viewBox="0 0 139 27" fill="none" xmlns="http://www.w3.org/2000/svg">
<path d="M7.888 21.2176C3.60853 21.2176 1.2512 19.2411 0.816 15.288L2.7744 15.016C3.0464 16.5573 3.5904 17.6725 4.4064 18.3616C5.24053 19.0325 6.4464 19.368 8.024 19.368C9.36587 19.368 10.4085 19.0688 11.152 18.4704C11.9136 17.8539 12.2944 17.0107 12.2944 15.9408C12.2944 15.2517 12.1312 14.6987 11.8048 14.2816C11.4965 13.8645 11.016 13.5291 10.3632 13.2752C9.72853 13.0032 8.9216 12.7584 7.9424 12.5408C6.7456 12.2688 5.70293 11.9424 4.8144 11.5616C3.92587 11.1808 3.2368 10.6368 2.7472 9.9296C2.2576 9.2224 2.0128 8.2432 2.0128 6.992C2.0128 5.92213 2.27573 4.97013 2.8016 4.136C3.3456 3.28373 4.08 2.62186 5.0048 2.1504C5.94773 1.6608 7.0176 1.416 8.2144 1.416C9.88267 1.416 11.2427 1.86933 12.2944 2.776C13.3643 3.68267 13.9989 4.94293 14.1984 6.5568L12.376 6.8832C12.1221 5.632 11.6507 4.71627 10.9616 4.136C10.2907 3.55573 9.3568 3.2656 8.16 3.2656C6.92693 3.2656 5.93867 3.60107 5.1952 4.272C4.46987 4.9248 4.1072 5.80427 4.1072 6.9104C4.1072 8.08907 4.488 8.94133 5.2496 9.4672C6.0112 9.99307 7.17173 10.4192 8.7312 10.7456C9.928 10.9995 10.9435 11.3168 11.7776 11.6976C12.6299 12.0603 13.2736 12.5771 13.7088 13.248C14.1621 13.9008 14.3888 14.7893 14.3888 15.9136C14.3888 16.9653 14.1077 17.8901 13.5456 18.688C13.0016 19.4859 12.24 20.1115 11.2608 20.5648C10.2816 21 9.15733 21.2176 7.888 21.2176ZM17.4463 21V0.871999H19.4319L19.4591 7.4816L19.2959 12.1056C19.7492 10.528 20.4473 9.32213 21.3903 8.488C22.3513 7.65387 23.4756 7.2368 24.7631 7.2368C26.1412 7.2368 27.202 7.71733 27.9455 8.6784C28.6889 9.63947 29.0607 11.0267 29.0607 12.84L29.0063 21H27.0207L27.0751 13.0848C27.0751 11.7611 26.8484 10.7637 26.3951 10.0928C25.9599 9.42187 25.2527 9.0864 24.2735 9.0864C23.3487 9.0864 22.5145 9.45813 21.7711 10.2016C21.0457 10.9269 20.4655 12.16 20.0303 13.9008C19.6132 15.6416 19.4047 18.008 19.4047 21H17.4463ZM39.0781 21.2176C36.9928 21.2176 35.3517 20.6192 34.1549 19.4224C32.9762 18.2256 32.3869 16.5573 32.3869 14.4176C32.3869 13.0213 32.668 11.7792 33.2301 10.6912C33.7922 9.6032 34.5538 8.76 35.5149 8.1616C36.4941 7.54507 37.6002 7.2368 38.8333 7.2368C40.6829 7.2368 42.1064 7.88053 43.1037 9.168C44.1192 10.4555 44.4818 12.3776 44.1917 14.9344H34.4269C34.4813 16.3851 34.9165 17.4912 35.7325 18.2528C36.5666 19.0144 37.7272 19.3952 39.2141 19.3952C39.9394 19.3952 40.6376 19.2411 41.3085 18.9328C41.9794 18.6064 42.5506 18.1077 43.0221 17.4368L44.2733 18.5792C43.0584 20.3381 41.3266 21.2176 39.0781 21.2176ZM38.8605 8.8416C38.0264 8.8416 37.292 9.04107 36.6573 9.44C36.0408 9.83893 35.5421 10.3829 35.1613 11.072C34.7805 11.7429 34.5448 12.4955 34.4541 13.3296H42.4509C42.5234 11.752 42.2152 10.6096 41.5261 9.9024C40.837 9.1952 39.9485 8.8416 38.8605 8.8416ZM50.86 21.2176C49.7357 21.2176 48.9016 20.9093 48.3576 20.2928C47.8136 19.6763 47.5416 18.8603 47.5416 17.8448V0.871999H49.5272V17.6C49.5272 18.1984 49.6541 18.6517 49.908 18.96C50.1618 19.2683 50.5789 19.4224 51.1592 19.4224C51.4312 19.4224 51.6941 19.3861 51.948 19.3136C52.2018 19.2229 52.4013 19.1323 52.5464 19.0416L53.0904 20.5376C52.8365 20.7552 52.501 20.9184 52.084 21.0272C51.685 21.1541 51.277 21.2176 50.86 21.2176ZM55.3112 21V9.168H52.5912V7.4816H55.3112V6.2304C55.3112 4.4896 55.7645 3.12053 56.6712 2.1232C57.596 1.10773 58.8109 0.599998 60.316 0.599998C61.5672 0.599998 62.5464 0.908265 63.2536 1.5248C63.9789 2.14133 64.396 3.01173 64.5048 4.136L62.8184 4.3536C62.6552 2.9936 61.812 2.3136 60.2888 2.3136C59.3459 2.3136 58.6024 2.63093 58.0584 3.2656C57.5144 3.90027 57.2424 4.816 57.2424 6.0128V7.4816H61.8936V9.168H57.2696V21H55.3112ZM69.9159 21.2448C67.5404 21.2448 65.6999 20.7371 64.3943 19.7216C63.0887 18.7061 62.3452 17.2101 62.1639 15.2336L66.3255 14.6352C66.4343 15.5781 66.806 16.3035 67.4407 16.8112C68.0754 17.3008 68.9548 17.5456 70.0791 17.5456C71.0402 17.5456 71.7746 17.3824 72.2823 17.056C72.8082 16.7115 73.0711 16.2309 73.0711 15.6144C73.0711 15.0523 72.7991 14.608 72.2551 14.2816C71.7111 13.9552 70.8135 13.6469 69.5623 13.3568C68.2204 13.0304 67.0871 12.6405 66.1623 12.1872C65.2375 11.7157 64.5394 11.1083 64.0679 10.3648C63.5964 9.62133 63.3607 8.6784 63.3607 7.536C63.3607 6.3392 63.669 5.2784 64.2855 4.3536C64.902 3.4288 65.7634 2.71253 66.8695 2.2048C67.9756 1.67893 69.254 1.416 70.7047 1.416C72.5906 1.416 74.1319 1.89653 75.3287 2.8576C76.5255 3.81867 77.2146 5.13333 77.3959 6.8016L73.5063 7.4544C73.3612 6.71093 73.0258 6.13973 72.4999 5.7408C71.974 5.32373 71.3122 5.1152 70.5143 5.1152C69.7164 5.1152 69.0727 5.3056 68.5831 5.6864C68.0935 6.04907 67.8487 6.54773 67.8487 7.1824C67.8487 7.76267 68.0844 8.23413 68.5559 8.5968C69.0274 8.94133 69.8887 9.26773 71.1399 9.576C72.4636 9.9024 73.606 10.2741 74.5671 10.6912C75.5282 11.0901 76.2626 11.6432 76.7703 12.3504C77.2962 13.0576 77.5591 14.0187 77.5591 15.2336C77.5591 16.4123 77.2418 17.4549 76.6071 18.3616C75.9724 19.2683 75.0748 19.9755 73.9143 20.4832C72.7719 20.9909 71.4391 21.2448 69.9159 21.2448ZM79.7251 26.44V7.1552H83.9139L83.7779 9.2768C84.7752 7.71733 86.2531 6.9376 88.2115 6.9376C89.4446 6.9376 90.4963 7.21867 91.3667 7.7808C92.2371 8.34293 92.899 9.12267 93.3523 10.12C93.8057 11.1173 94.0323 12.2597 94.0323 13.5472C94.0323 15.0885 93.715 16.4395 93.0803 17.6C92.4457 18.7605 91.5934 19.6672 90.5235 20.32C89.4536 20.9547 88.2568 21.272 86.9331 21.272C86.2984 21.272 85.7182 21.1813 85.1923 21C84.6846 20.8187 84.2312 20.5648 83.8323 20.2384L83.8867 21V26.44H79.7251ZM86.4979 17.6544C87.4952 17.6544 88.284 17.2827 88.8643 16.5392C89.4446 15.7776 89.7347 14.8165 89.7347 13.656C89.7347 12.6768 89.508 11.9152 89.0547 11.3712C88.6195 10.8272 88.0211 10.5552 87.2595 10.5552C86.3347 10.5552 85.5368 10.936 84.8659 11.6976C84.2131 12.4592 83.8867 13.4565 83.8867 14.6896C83.8867 15.5963 84.1224 16.3216 84.5939 16.8656C85.0654 17.3915 85.7 17.6544 86.4979 17.6544ZM110.139 7.2096V21H105.95L106.086 18.9328C105.089 20.4923 103.611 21.272 101.653 21.272C100.42 21.272 99.368 20.9909 98.4976 20.4288C97.6272 19.8667 96.9653 19.0869 96.512 18.0896C96.0586 17.0923 95.832 15.9499 95.832 14.6624C95.832 13.1211 96.1493 11.7701 96.784 10.6096C97.4186 9.44907 98.2709 8.55147 99.3408 7.9168C100.411 7.264 101.607 6.9376 102.931 6.9376C103.802 6.9376 104.572 7.11893 105.243 7.4816C105.914 7.82613 106.431 8.28853 106.794 8.8688L107.147 7.2096H110.139ZM103.339 10.5552C102.342 10.5552 101.553 10.9269 100.973 11.6704C100.411 12.4139 100.13 13.3659 100.13 14.5264C100.13 15.5237 100.347 16.2944 100.782 16.8384C101.236 17.3824 101.843 17.6544 102.605 17.6544C103.53 17.6544 104.318 17.2736 104.971 16.512C105.642 15.7504 105.978 14.7531 105.978 13.52C105.978 12.5952 105.742 11.8699 105.27 11.344C104.799 10.8181 104.155 10.5552 103.339 10.5552ZM119.691 21.272C118.258 21.272 117.016 21 115.964 20.456C114.913 19.8939 114.097 19.096 113.516 18.0624C112.936 17.0288 112.646 15.7957 112.646 14.3632C112.646 12.8944 112.954 11.6069 113.571 10.5008C114.206 9.37653 115.076 8.50613 116.182 7.8896C117.288 7.25493 118.576 6.9376 120.044 6.9376C121.241 6.9376 122.302 7.17333 123.227 7.6448C124.152 8.11627 124.895 8.85067 125.457 9.848L122.52 12.0784C122.23 11.5525 121.885 11.1717 121.486 10.936C121.105 10.7003 120.625 10.5824 120.044 10.5824C119.156 10.5824 118.422 10.9269 117.841 11.616C117.261 12.2869 116.971 13.1755 116.971 14.2816C116.971 15.3515 117.225 16.1765 117.732 16.7568C118.258 17.3371 119.011 17.6272 119.99 17.6272C120.516 17.6272 120.996 17.5093 121.432 17.2736C121.885 17.0197 122.266 16.6299 122.574 16.104L125.43 18.3888C124.814 19.4405 123.998 20.184 122.982 20.6192C121.985 21.0544 120.888 21.272 119.691 21.272ZM133.17 21.272C131.628 21.272 130.295 20.9909 129.171 20.4288C128.047 19.8485 127.176 19.0416 126.56 18.008C125.943 16.9563 125.635 15.7141 125.635 14.2816C125.635 12.8309 125.943 11.5525 126.56 10.4464C127.195 9.34027 128.038 8.47893 129.09 7.8624C130.159 7.24587 131.365 6.9376 132.707 6.9376C134.23 6.9376 135.472 7.28213 136.434 7.9712C137.395 8.66027 138.056 9.63947 138.419 10.9088C138.8 12.16 138.882 13.6197 138.664 15.288H129.878C129.987 15.9771 130.35 16.5573 130.966 17.0288C131.583 17.4821 132.426 17.7088 133.496 17.7088C133.986 17.7088 134.502 17.6091 135.046 17.4096C135.59 17.192 136.053 16.8747 136.434 16.4576L138.746 18.9056C138.147 19.6309 137.404 20.2112 136.515 20.6464C135.645 21.0635 134.53 21.272 133.17 21.272ZM132.789 9.9568C132.063 9.9568 131.447 10.1744 130.939 10.6096C130.45 11.0448 130.123 11.6523 129.96 12.432H135.155C135.173 11.5797 134.965 10.9541 134.53 10.5552C134.112 10.1563 133.532 9.9568 132.789 9.9568Z" fill="#412918"/>
</svg>
