<svg width="32" height="32" viewBox="0 0 32 32" fill="none" xmlns="http://www.w3.org/2000/svg">
<path d="M28 31H5C3.8955 31 3 30.1045 3 29C3 27.8955 3.8955 27 5 27H28V31Z" fill="#F9EBB2"/>
<path d="M3 2V26.7685C3.531 26.292 4.2305 26 5 26H6V1H4C3.448 1 3 1.448 3 2Z" fill="#573B27"/>
<path d="M28 1H7V26H28H29V25V2C29 1.448 28.552 1 28 1Z" fill="#D9CD9C"/>
<path d="M30 26V2C30 0.8945 29.1055 0 28 0H4C2.8945 0 2 0.8945 2 2V29C2 30.6565 3.3435 32 5 32H29.5C29.7765 32 30 31.7765 30 31.5C30 31.2235 29.7765 31 29.5 31H29V27C29.552 27 30 26.552 30 26ZM3 2C3 1.448 3.448 1 4 1H6V26H5C4.2305 26 3.531 26.292 3 26.7685V2ZM28 31H5C3.8955 31 3 30.1045 3 29C3 27.8955 3.8955 27 5 27H28V31ZM28 26H7V1H28C28.552 1 29 1.448 29 2V25V26H28Z" fill="#394240"/>
<path d="M21.5 13H11.5C11.2235 13 11 13.2235 11 13.5C11 13.7765 11.2235 14 11.5 14H21.5C21.7765 14 22 13.7765 22 13.5C22 13.2235 21.7765 13 21.5 13Z" fill="#394240"/>
<path d="M24.5 10H11.5C11.2235 10 11 10.2235 11 10.5C11 10.7765 11.2235 11 11.5 11H24.5C24.7765 11 25 10.7765 25 10.5C25 10.2235 24.7765 10 24.5 10Z" fill="#394240"/>
<path d="M11.5 8H17.5C17.7765 8 18 7.7765 18 7.5C18 7.2235 17.7765 7 17.5 7H11.5C11.2235 7 11 7.2235 11 7.5C11 7.7765 11.2235 8 11.5 8Z" fill="#394240"/>
<path opacity="0.2" d="M3 2V26.7685C3.531 26.292 4.2305 26 5 26H6V1H4C3.448 1 3 1.448 3 2Z" fill="#231F20"/>
</svg>
